<svg  xmlns="http://www.w3.org/2000/svg" viewBox="0 0 27 36"><defs><style>.cls-1{fill:none;}.cls-2{clip-path:url(#clip-path);}.cls-3{fill:#ff004d;}</style><clipPath id="clip-path" transform="translate(0 0)"><rect class="cls-1" width="27" height="36"/></clipPath></defs><g class="cls-2"><path class="cls-3" d="M9.7,15.42a9.44,9.44,0,0,0,1.81,6.76,9.84,9.84,0,0,0,4.37,3.38,11,11,0,0,0-1.52,3.67c-5.1-2.06-10-5.17-9.26-8.77.43-2,2.35-3.51,4.6-5M14.41,0a1.25,1.25,0,0,0-.92,1.77C16.74,9.31,2.23,10.26.22,19.39S10.26,33.7,18.78,36L19,36c.91,0,1.5-1.35,1-2.19-2-3.32,0-6.39,3.11-8.5,4.77-3.21,4.89-8,1.73-10.39a.7.7,0,0,0-.44-.17c-.64,0-1.1,1.05-.93,1.9a4.07,4.07,0,0,1-3.94,4.62h-.11a4.81,4.81,0,0,1-4.65-5.85c1.38-4.94,5.65-4.31,4.65-9.32C19,3.83,17,1.77,15,.2a.94.94,0,0,0-.56-.2Z" transform="translate(0 0)"/></g></svg>
