<svg width="660" height="280" viewBox="0 0 660 280" fill="none" xmlns="http://www.w3.org/2000/svg">
<rect width="660" height="280" rx="26" fill="white"/>
<g clip-path="url(#clip0_4_18)">
<mask id="mask0_4_18" style="mask-type:luminance" maskUnits="userSpaceOnUse" x="20" y="20" width="182" height="240">
<path d="M201.518 20H20V260H201.518V20Z" fill="white"/>
</mask>
<g mask="url(#mask0_4_18)">
<path d="M85.2122 122.8C83.296 138.813 87.6517 154.945 97.3806 167.867C104.803 178.006 114.998 185.825 126.76 190.4C121.884 197.873 118.422 206.164 116.541 214.867C82.2541 201.133 49.312 180.4 54.2869 156.4C57.1777 143.067 70.0857 133 85.2122 123.067M116.877 20C115.595 20.215 114.382 20.7219 113.331 21.4807C112.281 22.2395 111.422 23.2297 110.822 24.3733C110.223 25.5169 109.899 26.7828 109.877 28.0714C109.854 29.3601 110.133 30.6364 110.692 31.8C132.541 82.0667 34.9922 88.4 21.4792 149.267C7.96624 210.133 88.977 244.667 146.256 260H147.735C153.853 260 157.819 251 154.458 245.4C141.012 223.267 154.458 202.8 175.366 188.733C207.434 167.333 208.241 135.4 186.997 119.467C186.173 118.761 185.127 118.36 184.039 118.333C179.736 118.333 176.643 125.333 177.786 131C178.308 134.786 178.017 138.639 176.933 142.307C175.849 145.974 173.996 149.372 171.495 152.28C168.995 155.188 165.903 157.539 162.422 159.18C158.942 160.82 155.151 161.713 151.298 161.8H150.559C145.745 161.754 141.001 160.643 136.676 158.548C132.35 156.452 128.55 153.425 125.555 149.688C122.559 145.951 120.443 141.597 119.36 136.946C118.278 132.294 118.256 127.461 119.297 122.8C128.575 89.8667 157.281 94.0667 150.559 60.6667C147.735 45.5333 134.289 31.8 120.843 21.3333C119.767 20.4966 118.446 20.0287 117.079 20H116.877Z" fill="#FF004D"/>
</g>
</g>
<path d="M251.292 227.416V97.159H272.881L275.58 109.753C277.499 107.114 279.778 104.715 282.416 102.556C285.055 100.277 288.174 98.4783 291.772 97.159C295.49 95.7197 299.808 95 304.725 95C313.241 95 320.738 97.099 327.215 101.297C333.691 105.495 338.789 111.192 342.507 118.389C346.345 125.465 348.264 133.561 348.264 142.677C348.264 151.792 346.345 159.948 342.507 167.145C338.669 174.221 333.511 179.799 327.035 183.877C320.558 187.955 313.181 189.994 304.905 189.994C298.189 189.994 292.371 188.794 287.454 186.395C282.656 183.877 278.698 180.458 275.58 176.14V227.416H251.292ZM299.148 168.764C303.946 168.764 308.144 167.685 311.742 165.526C315.46 163.367 318.339 160.308 320.378 156.35C322.417 152.392 323.436 147.834 323.436 142.677C323.436 137.519 322.417 132.962 320.378 129.003C318.339 124.925 315.46 121.807 311.742 119.648C308.144 117.369 303.946 116.23 299.148 116.23C294.47 116.23 290.273 117.369 286.554 119.648C282.956 121.807 280.077 124.865 277.919 128.824C275.88 132.782 274.86 137.339 274.86 142.497C274.86 147.654 275.88 152.272 277.919 156.35C280.077 160.308 282.956 163.367 286.554 165.526C290.273 167.685 294.47 168.764 299.148 168.764Z" fill="black"/>
<path d="M372.44 227.416L394.389 177.76H388.992L352.65 97.159H379.097L405.004 155.63L428.393 97.159H454.12L398.167 227.416H372.44Z" fill="black"/>
<path d="M469.506 187.835V97.159H491.095L493.434 113.891C495.593 109.933 498.291 106.574 501.53 103.816C504.888 101.057 508.666 98.8981 512.864 97.3389C517.182 95.7796 521.92 95 527.077 95V120.727H518.802C515.203 120.727 511.845 121.147 508.726 121.987C505.728 122.826 503.089 124.206 500.81 126.125C498.531 127.924 496.792 130.443 495.593 133.681C494.393 136.92 493.794 140.998 493.794 145.915V187.835H469.506Z" fill="black"/>
<path d="M584.536 189.994C575.9 189.994 568.104 188.015 561.147 184.057C554.31 179.979 548.853 174.401 544.775 167.325C540.817 160.128 538.838 151.912 538.838 142.677C538.838 133.201 540.817 124.925 544.775 117.849C548.853 110.652 554.37 105.075 561.327 101.117C568.284 97.039 576.08 95 584.716 95C593.471 95 601.267 97.039 608.104 101.117C615.061 105.075 620.518 110.652 624.476 117.849C628.554 124.925 630.593 133.141 630.593 142.497C630.593 151.852 628.554 160.128 624.476 167.325C620.518 174.401 615.061 179.979 608.104 184.057C601.148 188.015 593.291 189.994 584.536 189.994ZM584.536 168.944C588.614 168.944 592.212 167.984 595.33 166.065C598.569 164.146 601.088 161.208 602.887 157.25C604.806 153.292 605.765 148.374 605.765 142.497C605.765 136.62 604.806 131.762 602.887 127.924C601.088 123.966 598.569 121.027 595.33 119.108C592.212 117.069 588.674 116.05 584.716 116.05C580.877 116.05 577.339 117.069 574.101 119.108C570.862 121.027 568.284 123.966 566.364 127.924C564.565 131.762 563.666 136.62 563.666 142.497C563.666 148.374 564.565 153.292 566.364 157.25C568.284 161.208 570.802 164.146 573.921 166.065C577.159 167.984 580.697 168.944 584.536 168.944Z" fill="black"/>
<defs>
<clipPath id="clip0_4_18">
<rect width="181.518" height="240" fill="white" transform="translate(20 20)"/>
</clipPath>
</defs>
</svg>
